<svg xmlns="http://www.w3.org/2000/svg" width="500" height="400" viewBox="0 0 500 400" fill="none">
  <rect width="500" height="400" fill="white"/>
  <circle cx="250" cy="150" r="100" fill="#f0f9ff"/>
  <path d="M180 150C180 111.34 211.34 80 250 80C288.66 80 320 111.34 320 150C320 188.66 288.66 220 250 220C211.34 220 180 188.66 180 150Z" fill="#3b82f6"/>
  <path d="M250 220C194.77 220 150 264.77 150 320V350H350V320C350 264.77 305.23 220 250 220Z" fill="#3b82f6"/>
  <circle cx="250" cy="150" r="40" fill="#f0f9ff"/>
  <rect x="100" y="300" width="300" height="20" rx="10" fill="#dbeafe"/>
  <rect x="150" y="330" width="200" height="20" rx="10" fill="#dbeafe"/>
  <rect x="180" y="360" width="140" height="20" rx="10" fill="#dbeafe"/>
</svg> 