<svg xmlns="http://www.w3.org/2000/svg" width="500" height="400" viewBox="0 0 500 400" fill="none">
  <rect width="500" height="400" fill="white"/>
  <rect x="100" y="80" width="300" height="240" rx="20" fill="#dbeafe"/>
  <rect x="130" y="120" width="240" height="30" rx="5" fill="white"/>
  <rect x="130" y="170" width="240" height="30" rx="5" fill="white"/>
  <rect x="130" y="220" width="240" height="30" rx="5" fill="white"/>
  <rect x="130" y="270" width="120" height="30" rx="15" fill="#3b82f6"/>
  <circle cx="150" cy="135" r="8" fill="#3b82f6"/>
  <circle cx="150" cy="185" r="8" fill="#3b82f6"/>
  <circle cx="150" cy="235" r="8" fill="#3b82f6"/>
  <path d="M350 50C350 36.1929 361.193 25 375 25C388.807 25 400 36.1929 400 50C400 63.8071 388.807 75 375 75C361.193 75 350 63.8071 350 50Z" fill="#3b82f6"/>
  <path d="M100 350C100 336.193 111.193 325 125 325C138.807 325 150 336.193 150 350C150 363.807 138.807 375 125 375C111.193 375 100 363.807 100 350Z" fill="#3b82f6"/>
  <path d="M375 325C361.193 325 350 336.193 350 350C350 363.807 361.193 375 375 375C388.807 375 400 363.807 400 350C400 336.193 388.807 325 375 325Z" fill="#3b82f6"/>
</svg> 